<?xml version="1.0" encoding="UTF-8" standalone="no"?>
<!DOCTYPE svg PUBLIC "-//W3C//DTD SVG 1.1//EN"
 "http://www.w3.org/Graphics/SVG/1.1/DTD/svg11.dtd">
<!-- Generated by graphviz version 5.0.0 (20220707.1540)
 -->
<!-- Title: dependencies Pages: 1 -->
<svg width="2006pt" height="247pt"
 viewBox="0.00 0.00 2006.00 246.80" xmlns="http://www.w3.org/2000/svg" xmlns:xlink="http://www.w3.org/1999/xlink">
<g id="graph0" class="graph" transform="scale(1 1) rotate(0) translate(4 242.8)">
<title>dependencies</title>
<polygon fill="white" stroke="transparent" points="-4,4 -4,-242.8 2002,-242.8 2002,4 -4,4"/>
<text text-anchor="middle" x="999" y="-8.2" font-family="sans-serif" font-size="14.00">dependencies</text>
<g id="clust1" class="cluster">
<title>cluster_AppModule</title>
<polygon fill="none" stroke="black" stroke-dasharray="1,5" points="8,-32.8 8,-230.8 1990,-230.8 1990,-32.8 8,-32.8"/>
</g>
<g id="clust14" class="cluster">
<title>cluster_AppModule_imports</title>
<polygon fill="none" stroke="black" points="1838,-40.8 1838,-92.8 1982,-92.8 1982,-40.8 1838,-40.8"/>
</g>
<g id="clust16" class="cluster">
<title>cluster_AppModule_bootstrap</title>
<polygon fill="none" stroke="black" points="1007,-170.8 1007,-222.8 1131,-222.8 1131,-170.8 1007,-170.8"/>
</g>
<g id="clust2" class="cluster">
<title>cluster_AppModule_declarations</title>
<polygon fill="none" stroke="black" points="16,-40.8 16,-92.8 1830,-92.8 1830,-40.8 16,-40.8"/>
</g>
<!-- AppComponent -->
<g id="node1" class="node">
<title>AppComponent</title>
<polygon fill="#ffffb3" stroke="black" points="1821.94,-84.8 1716.06,-84.8 1716.06,-48.8 1821.94,-48.8 1821.94,-84.8"/>
<text text-anchor="middle" x="1769" y="-62.6" font-family="Times,serif" font-size="14.00">AppComponent</text>
</g>
<!-- AppModule -->
<g id="node12" class="node">
<title>AppModule</title>
<polygon fill="#8dd3c7" stroke="black" points="1110.66,-149.8 1107.66,-153.8 1086.66,-153.8 1083.66,-149.8 1027.34,-149.8 1027.34,-113.8 1110.66,-113.8 1110.66,-149.8"/>
<text text-anchor="middle" x="1069" y="-127.6" font-family="Times,serif" font-size="14.00">AppModule</text>
</g>
<!-- AppComponent&#45;&gt;AppModule -->
<g id="edge1" class="edge">
<title>AppComponent&#45;&gt;AppModule</title>
<path fill="none" stroke="black" d="M1769,-85.08C1769,-106.12 1769,-137.8 1769,-137.8 1769,-137.8 1120.69,-137.8 1120.69,-137.8"/>
<polygon fill="black" stroke="black" points="1120.69,-134.3 1110.69,-137.8 1120.69,-141.3 1120.69,-134.3"/>
</g>
<!-- DescriptionComponent -->
<g id="node2" class="node">
<title>DescriptionComponent</title>
<polygon fill="#ffffb3" stroke="black" points="1698.15,-84.8 1551.85,-84.8 1551.85,-48.8 1698.15,-48.8 1698.15,-84.8"/>
<text text-anchor="middle" x="1625" y="-62.6" font-family="Times,serif" font-size="14.00">DescriptionComponent</text>
</g>
<!-- DescriptionComponent&#45;&gt;AppModule -->
<g id="edge2" class="edge">
<title>DescriptionComponent&#45;&gt;AppModule</title>
<path fill="none" stroke="black" d="M1625,-84.91C1625,-104.14 1625,-131.8 1625,-131.8 1625,-131.8 1120.79,-131.8 1120.79,-131.8"/>
<polygon fill="black" stroke="black" points="1120.79,-128.3 1110.79,-131.8 1120.79,-135.3 1120.79,-128.3"/>
</g>
<!-- DirectorComponent -->
<g id="node3" class="node">
<title>DirectorComponent</title>
<polygon fill="#ffffb3" stroke="black" points="1533.97,-84.8 1406.03,-84.8 1406.03,-48.8 1533.97,-48.8 1533.97,-84.8"/>
<text text-anchor="middle" x="1470" y="-62.6" font-family="Times,serif" font-size="14.00">DirectorComponent</text>
</g>
<!-- DirectorComponent&#45;&gt;AppModule -->
<g id="edge3" class="edge">
<title>DirectorComponent&#45;&gt;AppModule</title>
<path fill="none" stroke="black" d="M1470,-84.82C1470,-102.17 1470,-125.8 1470,-125.8 1470,-125.8 1120.78,-125.8 1120.78,-125.8"/>
<polygon fill="black" stroke="black" points="1120.78,-122.3 1110.78,-125.8 1120.78,-129.3 1120.78,-122.3"/>
</g>
<!-- EditUserProfileComponent -->
<g id="node4" class="node">
<title>EditUserProfileComponent</title>
<polygon fill="#ffffb3" stroke="black" points="1387.7,-84.8 1218.3,-84.8 1218.3,-48.8 1387.7,-48.8 1387.7,-84.8"/>
<text text-anchor="middle" x="1303" y="-62.6" font-family="Times,serif" font-size="14.00">EditUserProfileComponent</text>
</g>
<!-- EditUserProfileComponent&#45;&gt;AppModule -->
<g id="edge4" class="edge">
<title>EditUserProfileComponent&#45;&gt;AppModule</title>
<path fill="none" stroke="black" d="M1303,-85.04C1303,-100.37 1303,-119.8 1303,-119.8 1303,-119.8 1120.83,-119.8 1120.83,-119.8"/>
<polygon fill="black" stroke="black" points="1120.83,-116.3 1110.83,-119.8 1120.83,-123.3 1120.83,-116.3"/>
</g>
<!-- GenreComponent -->
<g id="node5" class="node">
<title>GenreComponent</title>
<polygon fill="#ffffb3" stroke="black" points="1200.53,-84.8 1085.47,-84.8 1085.47,-48.8 1200.53,-48.8 1200.53,-84.8"/>
<text text-anchor="middle" x="1143" y="-62.6" font-family="Times,serif" font-size="14.00">GenreComponent</text>
</g>
<!-- GenreComponent&#45;&gt;AppModule -->
<g id="edge5" class="edge">
<title>GenreComponent&#45;&gt;AppModule</title>
<path fill="none" stroke="black" d="M1098.03,-84.91C1098.03,-84.91 1098.03,-103.79 1098.03,-103.79"/>
<polygon fill="black" stroke="black" points="1094.53,-103.79 1098.03,-113.79 1101.53,-103.79 1094.53,-103.79"/>
</g>
<!-- MovieCardComponent -->
<g id="node6" class="node">
<title>MovieCardComponent</title>
<polygon fill="#ffffb3" stroke="black" points="1067.6,-84.8 922.4,-84.8 922.4,-48.8 1067.6,-48.8 1067.6,-84.8"/>
<text text-anchor="middle" x="995" y="-62.6" font-family="Times,serif" font-size="14.00">MovieCardComponent</text>
</g>
<!-- MovieCardComponent&#45;&gt;AppModule -->
<g id="edge6" class="edge">
<title>MovieCardComponent&#45;&gt;AppModule</title>
<path fill="none" stroke="black" d="M1047.36,-84.91C1047.36,-84.91 1047.36,-103.79 1047.36,-103.79"/>
<polygon fill="black" stroke="black" points="1043.86,-103.79 1047.36,-113.79 1050.86,-103.79 1043.86,-103.79"/>
</g>
<!-- NavbarComponent -->
<g id="node7" class="node">
<title>NavbarComponent</title>
<polygon fill="#ffffb3" stroke="black" points="904.03,-84.8 781.97,-84.8 781.97,-48.8 904.03,-48.8 904.03,-84.8"/>
<text text-anchor="middle" x="843" y="-62.6" font-family="Times,serif" font-size="14.00">NavbarComponent</text>
</g>
<!-- NavbarComponent&#45;&gt;AppModule -->
<g id="edge7" class="edge">
<title>NavbarComponent&#45;&gt;AppModule</title>
<path fill="none" stroke="black" d="M843,-85.04C843,-100.37 843,-119.8 843,-119.8 843,-119.8 1017.28,-119.8 1017.28,-119.8"/>
<polygon fill="black" stroke="black" points="1017.28,-123.3 1027.28,-119.8 1017.28,-116.3 1017.28,-123.3"/>
</g>
<!-- UserLoginFormComponent -->
<g id="node8" class="node">
<title>UserLoginFormComponent</title>
<polygon fill="#ffffb3" stroke="black" points="763.55,-84.8 592.45,-84.8 592.45,-48.8 763.55,-48.8 763.55,-84.8"/>
<text text-anchor="middle" x="678" y="-62.6" font-family="Times,serif" font-size="14.00">UserLoginFormComponent</text>
</g>
<!-- UserLoginFormComponent&#45;&gt;AppModule -->
<g id="edge8" class="edge">
<title>UserLoginFormComponent&#45;&gt;AppModule</title>
<path fill="none" stroke="black" d="M678,-84.82C678,-102.17 678,-125.8 678,-125.8 678,-125.8 1017.16,-125.8 1017.16,-125.8"/>
<polygon fill="black" stroke="black" points="1017.16,-129.3 1027.16,-125.8 1017.16,-122.3 1017.16,-129.3"/>
</g>
<!-- UserProfileComponent -->
<g id="node9" class="node">
<title>UserProfileComponent</title>
<polygon fill="#ffffb3" stroke="black" points="573.87,-84.8 428.13,-84.8 428.13,-48.8 573.87,-48.8 573.87,-84.8"/>
<text text-anchor="middle" x="501" y="-62.6" font-family="Times,serif" font-size="14.00">UserProfileComponent</text>
</g>
<!-- UserProfileComponent&#45;&gt;AppModule -->
<g id="edge9" class="edge">
<title>UserProfileComponent&#45;&gt;AppModule</title>
<path fill="none" stroke="black" d="M501,-84.91C501,-104.14 501,-131.8 501,-131.8 501,-131.8 1017.23,-131.8 1017.23,-131.8"/>
<polygon fill="black" stroke="black" points="1017.23,-135.3 1027.23,-131.8 1017.23,-128.3 1017.23,-135.3"/>
</g>
<!-- UserRegistrationFormComponent -->
<g id="node10" class="node">
<title>UserRegistrationFormComponent</title>
<polygon fill="#ffffb3" stroke="black" points="410.04,-84.8 203.96,-84.8 203.96,-48.8 410.04,-48.8 410.04,-84.8"/>
<text text-anchor="middle" x="307" y="-62.6" font-family="Times,serif" font-size="14.00">UserRegistrationFormComponent</text>
</g>
<!-- UserRegistrationFormComponent&#45;&gt;AppModule -->
<g id="edge10" class="edge">
<title>UserRegistrationFormComponent&#45;&gt;AppModule</title>
<path fill="none" stroke="black" d="M307,-85.08C307,-106.12 307,-137.8 307,-137.8 307,-137.8 1017.22,-137.8 1017.22,-137.8"/>
<polygon fill="black" stroke="black" points="1017.22,-141.3 1027.22,-137.8 1017.22,-134.3 1017.22,-141.3"/>
</g>
<!-- WelcomePageComponent -->
<g id="node11" class="node">
<title>WelcomePageComponent</title>
<polygon fill="#ffffb3" stroke="black" points="186.18,-84.8 23.82,-84.8 23.82,-48.8 186.18,-48.8 186.18,-84.8"/>
<text text-anchor="middle" x="105" y="-62.6" font-family="Times,serif" font-size="14.00">WelcomePageComponent</text>
</g>
<!-- WelcomePageComponent&#45;&gt;AppModule -->
<g id="edge11" class="edge">
<title>WelcomePageComponent&#45;&gt;AppModule</title>
<path fill="none" stroke="black" d="M105,-85.05C105,-107.82 105,-143.8 105,-143.8 105,-143.8 1017.27,-143.8 1017.27,-143.8"/>
<polygon fill="black" stroke="black" points="1017.27,-147.3 1027.27,-143.8 1017.27,-140.3 1017.27,-147.3"/>
</g>
<!-- AppComponent  -->
<g id="node14" class="node">
<title>AppComponent </title>
<polygon fill="#80b1d3" stroke="black" points="1123.44,-214.8 1014.56,-214.8 1014.56,-178.8 1123.44,-178.8 1123.44,-214.8"/>
<text text-anchor="middle" x="1069" y="-192.6" font-family="Times,serif" font-size="14.00">AppComponent </text>
</g>
<!-- AppModule&#45;&gt;AppComponent  -->
<g id="edge13" class="edge">
<title>AppModule&#45;&gt;AppComponent </title>
<path fill="none" stroke="black" stroke-dasharray="1,5" d="M1069,-149.91C1069,-149.91 1069,-168.79 1069,-168.79"/>
<polygon fill="black" stroke="black" points="1065.5,-168.79 1069,-178.79 1072.5,-168.79 1065.5,-168.79"/>
</g>
<!-- AppRoutingModule -->
<g id="node13" class="node">
<title>AppRoutingModule</title>
<polygon fill="#8dd3c7" stroke="black" points="1974.28,-84.8 1971.28,-88.8 1950.28,-88.8 1947.28,-84.8 1845.72,-84.8 1845.72,-48.8 1974.28,-48.8 1974.28,-84.8"/>
<text text-anchor="middle" x="1910" y="-62.6" font-family="Times,serif" font-size="14.00">AppRoutingModule</text>
</g>
<!-- AppRoutingModule&#45;&gt;AppModule -->
<g id="edge12" class="edge">
<title>AppRoutingModule&#45;&gt;AppModule</title>
<path fill="none" stroke="black" d="M1910,-85.05C1910,-107.82 1910,-143.8 1910,-143.8 1910,-143.8 1120.71,-143.8 1120.71,-143.8"/>
<polygon fill="black" stroke="black" points="1120.71,-140.3 1110.71,-143.8 1120.71,-147.3 1120.71,-140.3"/>
</g>
</g>
</svg>
